<svg width="56" height="56" viewBox="0 0 56 56" fill="none" xmlns="http://www.w3.org/2000/svg">
<rect width="56" height="56" rx="10" fill="white"/>
<path d="M35.7672 21.1141C35.7538 20.8847 35.6566 20.6683 35.4942 20.5058C35.3317 20.3433 35.1153 20.2462 34.8859 20.2328C31.7922 20.0508 29.0586 20.4156 26.7609 21.3164C24.5625 22.1781 22.868 23.5141 21.8586 25.1797C20.482 27.4539 20.4789 30.2148 21.8234 32.8508L20.4617 34.2125C20.3745 34.2997 20.3053 34.4032 20.2581 34.5172C20.2109 34.6311 20.1867 34.7532 20.1867 34.8766C20.1867 34.9999 20.2109 35.122 20.2581 35.2359C20.3053 35.3499 20.3745 35.4534 20.4617 35.5406C20.6378 35.7167 20.8767 35.8157 21.1258 35.8157C21.2491 35.8157 21.3712 35.7914 21.4852 35.7442C21.5991 35.697 21.7026 35.6278 21.7898 35.5406L23.1516 34.1789C24.4594 34.8461 25.7984 35.1828 27.093 35.1828C28.4082 35.1869 29.699 34.8273 30.8227 34.1437C32.4883 33.1344 33.8242 31.4391 34.6859 29.2414C35.5844 26.9422 35.9492 24.2078 35.7672 21.1141ZM29.8484 32.5375C28.2789 33.4883 26.4375 33.5602 24.5578 32.7656L31.1625 26.1609C31.2497 26.0737 31.3189 25.9702 31.3661 25.8563C31.4133 25.7423 31.4376 25.6202 31.4376 25.4969C31.4376 25.3735 31.4133 25.2514 31.3661 25.1375C31.3189 25.0235 31.2497 24.92 31.1625 24.8328C31.0753 24.7456 30.9718 24.6764 30.8578 24.6292C30.7439 24.582 30.6218 24.5577 30.4984 24.5577C30.3751 24.5577 30.253 24.582 30.139 24.6292C30.0251 24.6764 29.9216 24.7456 29.8344 24.8328L23.2344 31.4422C22.4422 29.5672 22.5141 27.7211 23.4687 26.1516C25.1023 23.4539 28.9797 21.9547 33.9375 22.0695C34.0453 27.0258 32.5461 30.9039 29.8484 32.5375Z" fill="black"/>
</svg>
